<mxfile host="Electron" agent="Mozilla/5.0 (Macintosh; Intel Mac OS X 10_15_7) AppleWebKit/537.36 (KHTML, like Gecko) draw.io/27.0.2 Chrome/134.0.6998.205 Electron/35.3.0 Safari/537.36" version="27.0.2">
  <diagram name="Page-1" id="GBL-FTdGxKNh3flsDpej">
    <mxGraphModel dx="2526" dy="774" grid="1" gridSize="10" guides="1" tooltips="1" connect="1" arrows="1" fold="1" page="1" pageScale="1" pageWidth="1100" pageHeight="850" math="0" shadow="0">
      <root>
        <mxCell id="0" />
        <mxCell id="1" parent="0" />
        <mxCell id="mYvSoDIpV9AA7xkCmXTC-46" value="&lt;font style=&quot;font-size: 16px;&quot;&gt;Source Tables&lt;/font&gt;" style="rounded=1;whiteSpace=wrap;html=1;fillColor=#D4E1F5;fontColor=#030303;strokeColor=#314354;verticalAlign=top;fontSize=18;" parent="1" vertex="1">
          <mxGeometry x="29" y="60" width="192" height="610" as="geometry" />
        </mxCell>
        <mxCell id="mYvSoDIpV9AA7xkCmXTC-45" value="&lt;font style=&quot;font-size: 20px;&quot;&gt;Progression Logic&lt;/font&gt;" style="rounded=1;whiteSpace=wrap;html=1;fillColor=#D4E1F5;fontColor=#030303;strokeColor=#314354;verticalAlign=top;fontSize=18;" parent="1" vertex="1">
          <mxGeometry x="936" y="472" width="314" height="138" as="geometry" />
        </mxCell>
        <mxCell id="mYvSoDIpV9AA7xkCmXTC-44" value="&lt;font style=&quot;font-size: 20px;&quot;&gt;Problem Queues&lt;/font&gt;" style="rounded=1;whiteSpace=wrap;html=1;fillColor=#D4E1F5;fontColor=light-dark(#ffffff, #030303);strokeColor=#314354;verticalAlign=top;fontSize=18;" parent="1" vertex="1">
          <mxGeometry x="935" y="74" width="534" height="286" as="geometry" />
        </mxCell>
        <mxCell id="mYvSoDIpV9AA7xkCmXTC-1" value="step_log" style="rounded=1;whiteSpace=wrap;html=1;" parent="1" vertex="1">
          <mxGeometry x="49" y="312" width="150" height="30" as="geometry" />
        </mxCell>
        <mxCell id="mYvSoDIpV9AA7xkCmXTC-2" value="problem_log" style="rounded=1;whiteSpace=wrap;html=1;" parent="1" vertex="1">
          <mxGeometry x="49" y="418" width="150" height="30" as="geometry" />
        </mxCell>
        <mxCell id="mYvSoDIpV9AA7xkCmXTC-3" value="" style="endArrow=classic;html=1;rounded=0;exitX=0.5;exitY=1;exitDx=0;exitDy=0;" parent="1" source="mYvSoDIpV9AA7xkCmXTC-1" target="mYvSoDIpV9AA7xkCmXTC-2" edge="1">
          <mxGeometry width="50" height="50" relative="1" as="geometry">
            <mxPoint x="399" y="502" as="sourcePoint" />
            <mxPoint x="449" y="452" as="targetPoint" />
          </mxGeometry>
        </mxCell>
        <mxCell id="mYvSoDIpV9AA7xkCmXTC-4" value="problem_log_combined_view" style="rounded=1;whiteSpace=wrap;html=1;spacingRight=3;spacingLeft=3;" parent="1" vertex="1">
          <mxGeometry x="287" y="368" width="250" height="30" as="geometry" />
        </mxCell>
        <mxCell id="mYvSoDIpV9AA7xkCmXTC-5" value="" style="endArrow=classic;html=1;rounded=0;exitX=1;exitY=0.5;exitDx=0;exitDy=0;entryX=0;entryY=0;entryDx=0;entryDy=0;" parent="1" source="mYvSoDIpV9AA7xkCmXTC-1" target="mYvSoDIpV9AA7xkCmXTC-4" edge="1">
          <mxGeometry width="50" height="50" relative="1" as="geometry">
            <mxPoint x="413" y="502" as="sourcePoint" />
            <mxPoint x="463" y="452" as="targetPoint" />
          </mxGeometry>
        </mxCell>
        <mxCell id="mYvSoDIpV9AA7xkCmXTC-6" value="" style="endArrow=classic;html=1;rounded=0;exitX=1;exitY=0.25;exitDx=0;exitDy=0;entryX=0;entryY=0.75;entryDx=0;entryDy=0;" parent="1" source="mYvSoDIpV9AA7xkCmXTC-2" target="mYvSoDIpV9AA7xkCmXTC-4" edge="1">
          <mxGeometry width="50" height="50" relative="1" as="geometry">
            <mxPoint x="193" y="322" as="sourcePoint" />
            <mxPoint x="233" y="387" as="targetPoint" />
          </mxGeometry>
        </mxCell>
        <mxCell id="mYvSoDIpV9AA7xkCmXTC-7" value="problem_attempt_log" style="rounded=1;whiteSpace=wrap;html=1;spacingLeft=3;spacingRight=3;" parent="1" vertex="1">
          <mxGeometry x="49" y="249" width="150" height="27" as="geometry" />
        </mxCell>
        <mxCell id="mYvSoDIpV9AA7xkCmXTC-8" value="problem_performance_combined_view" style="rounded=1;whiteSpace=wrap;html=1;spacingRight=3;spacingLeft=3;" parent="1" vertex="1">
          <mxGeometry x="599" y="303" width="250" height="30" as="geometry" />
        </mxCell>
        <mxCell id="mYvSoDIpV9AA7xkCmXTC-9" value="" style="endArrow=classic;html=1;rounded=0;exitX=1;exitY=0.75;exitDx=0;exitDy=0;entryX=0;entryY=0.25;entryDx=0;entryDy=0;" parent="1" source="mYvSoDIpV9AA7xkCmXTC-7" target="mYvSoDIpV9AA7xkCmXTC-8" edge="1">
          <mxGeometry width="50" height="50" relative="1" as="geometry">
            <mxPoint x="223" y="255" as="sourcePoint" />
            <mxPoint x="281" y="290" as="targetPoint" />
          </mxGeometry>
        </mxCell>
        <mxCell id="mYvSoDIpV9AA7xkCmXTC-10" value="" style="endArrow=classic;html=1;rounded=0;exitX=1;exitY=0.5;exitDx=0;exitDy=0;entryX=0;entryY=0.5;entryDx=0;entryDy=0;" parent="1" source="mYvSoDIpV9AA7xkCmXTC-4" target="mYvSoDIpV9AA7xkCmXTC-8" edge="1">
          <mxGeometry width="50" height="50" relative="1" as="geometry">
            <mxPoint x="247" y="337" as="sourcePoint" />
            <mxPoint x="305" y="372" as="targetPoint" />
          </mxGeometry>
        </mxCell>
        <mxCell id="mYvSoDIpV9AA7xkCmXTC-11" value="problem_performance_progress_view" style="rounded=1;whiteSpace=wrap;html=1;spacingRight=3;spacingLeft=3;" parent="1" vertex="1">
          <mxGeometry x="599" y="385" width="250" height="30" as="geometry" />
        </mxCell>
        <mxCell id="mYvSoDIpV9AA7xkCmXTC-12" value="" style="endArrow=classic;html=1;rounded=0;exitX=0.5;exitY=1;exitDx=0;exitDy=0;entryX=0.5;entryY=0;entryDx=0;entryDy=0;" parent="1" source="mYvSoDIpV9AA7xkCmXTC-8" target="mYvSoDIpV9AA7xkCmXTC-11" edge="1">
          <mxGeometry width="50" height="50" relative="1" as="geometry">
            <mxPoint x="560" y="314" as="sourcePoint" />
            <mxPoint x="622" y="314" as="targetPoint" />
          </mxGeometry>
        </mxCell>
        <mxCell id="mYvSoDIpV9AA7xkCmXTC-13" value="level_performance_view" style="rounded=1;whiteSpace=wrap;html=1;spacingRight=3;spacingLeft=3;" parent="1" vertex="1">
          <mxGeometry x="599" y="452" width="250" height="30" as="geometry" />
        </mxCell>
        <mxCell id="mYvSoDIpV9AA7xkCmXTC-14" value="" style="endArrow=classic;html=1;rounded=0;entryX=0;entryY=0.5;entryDx=0;entryDy=0;exitX=1;exitY=1;exitDx=0;exitDy=0;" parent="1" source="mYvSoDIpV9AA7xkCmXTC-4" target="mYvSoDIpV9AA7xkCmXTC-13" edge="1">
          <mxGeometry width="50" height="50" relative="1" as="geometry">
            <mxPoint x="247" y="247" as="sourcePoint" />
            <mxPoint x="517" y="372" as="targetPoint" />
          </mxGeometry>
        </mxCell>
        <mxCell id="nkwBMkbIPw3e_FjHOo76-14" style="edgeStyle=orthogonalEdgeStyle;rounded=0;orthogonalLoop=1;jettySize=auto;html=1;exitX=0;exitY=0.25;exitDx=0;exitDy=0;entryX=0;entryY=0.75;entryDx=0;entryDy=0;" parent="1" source="mYvSoDIpV9AA7xkCmXTC-17" target="nkwBMkbIPw3e_FjHOo76-6" edge="1">
          <mxGeometry relative="1" as="geometry">
            <Array as="points">
              <mxPoint x="-30" y="108" />
              <mxPoint x="-30" y="726" />
            </Array>
          </mxGeometry>
        </mxCell>
        <mxCell id="QaGjVA8-2h8eWTiUy8LJ-34" style="edgeStyle=orthogonalEdgeStyle;rounded=0;orthogonalLoop=1;jettySize=auto;html=1;exitX=0;exitY=0.75;exitDx=0;exitDy=0;entryX=0.5;entryY=1;entryDx=0;entryDy=0;" parent="1" source="mYvSoDIpV9AA7xkCmXTC-17" target="nkwBMkbIPw3e_FjHOo76-1" edge="1">
          <mxGeometry relative="1" as="geometry">
            <Array as="points">
              <mxPoint x="-10" y="124" />
              <mxPoint x="-10" y="690" />
              <mxPoint x="419" y="690" />
            </Array>
          </mxGeometry>
        </mxCell>
        <mxCell id="mYvSoDIpV9AA7xkCmXTC-17" value="problem_final" style="rounded=1;whiteSpace=wrap;html=1;spacingLeft=3;spacingRight=3;" parent="1" vertex="1">
          <mxGeometry x="49" y="101" width="150" height="30" as="geometry" />
        </mxCell>
        <mxCell id="mYvSoDIpV9AA7xkCmXTC-18" value="problem_and_attempt_combined_view" style="rounded=1;whiteSpace=wrap;html=1;spacingRight=3;spacingLeft=3;strokeColor=default;align=center;verticalAlign=middle;fontFamily=Helvetica;fontSize=12;fontColor=default;fillColor=default;" parent="1" vertex="1">
          <mxGeometry x="287" y="233" width="250" height="30" as="geometry" />
        </mxCell>
        <mxCell id="mYvSoDIpV9AA7xkCmXTC-19" value="" style="endArrow=classic;html=1;rounded=0;exitX=1;exitY=0.25;exitDx=0;exitDy=0;entryX=0;entryY=0.75;entryDx=0;entryDy=0;" parent="1" source="mYvSoDIpV9AA7xkCmXTC-7" target="mYvSoDIpV9AA7xkCmXTC-18" edge="1">
          <mxGeometry width="50" height="50" relative="1" as="geometry">
            <mxPoint x="223" y="165" as="sourcePoint" />
            <mxPoint x="520" y="290" as="targetPoint" />
          </mxGeometry>
        </mxCell>
        <mxCell id="mYvSoDIpV9AA7xkCmXTC-20" value="" style="endArrow=classic;html=1;rounded=0;exitX=1;exitY=0.5;exitDx=0;exitDy=0;entryX=0;entryY=0.25;entryDx=0;entryDy=0;" parent="1" source="mYvSoDIpV9AA7xkCmXTC-17" target="mYvSoDIpV9AA7xkCmXTC-18" edge="1">
          <mxGeometry width="50" height="50" relative="1" as="geometry">
            <mxPoint x="233" y="175" as="sourcePoint" />
            <mxPoint x="530" y="300" as="targetPoint" />
          </mxGeometry>
        </mxCell>
        <mxCell id="mYvSoDIpV9AA7xkCmXTC-21" value="problem_and_attempt_current_level_view" style="rounded=1;whiteSpace=wrap;html=1;spacingRight=3;spacingLeft=3;strokeColor=default;align=center;verticalAlign=middle;fontFamily=Helvetica;fontSize=12;fontColor=default;fillColor=default;" parent="1" vertex="1">
          <mxGeometry x="599" y="188" width="250" height="30" as="geometry" />
        </mxCell>
        <mxCell id="mYvSoDIpV9AA7xkCmXTC-22" value="queue_10_full_view" style="rounded=1;whiteSpace=wrap;html=1;spacingRight=3;spacingLeft=3;strokeColor=default;align=center;verticalAlign=middle;fontFamily=Helvetica;fontSize=12;fontColor=default;fillColor=default;" parent="1" vertex="1">
          <mxGeometry x="991" y="115" width="210" height="20" as="geometry" />
        </mxCell>
        <mxCell id="mYvSoDIpV9AA7xkCmXTC-23" value="queue_11_answer_view" style="rounded=1;whiteSpace=wrap;html=1;spacingRight=3;spacingLeft=3;strokeColor=default;align=center;verticalAlign=middle;fontFamily=Helvetica;fontSize=12;fontColor=default;fillColor=default;" parent="1" vertex="1">
          <mxGeometry x="991" y="148" width="210" height="20" as="geometry" />
        </mxCell>
        <mxCell id="mYvSoDIpV9AA7xkCmXTC-24" value="queue_12_carry_view" style="rounded=1;whiteSpace=wrap;html=1;spacingRight=3;spacingLeft=3;strokeColor=default;align=center;verticalAlign=middle;fontFamily=Helvetica;fontSize=12;fontColor=default;fillColor=default;" parent="1" vertex="1">
          <mxGeometry x="991" y="182" width="210" height="20" as="geometry" />
        </mxCell>
        <mxCell id="mYvSoDIpV9AA7xkCmXTC-25" value="queue_13_operand_view" style="rounded=1;whiteSpace=wrap;html=1;spacingRight=3;spacingLeft=3;strokeColor=default;align=center;verticalAlign=middle;fontFamily=Helvetica;fontSize=12;fontColor=default;fillColor=default;" parent="1" vertex="1">
          <mxGeometry x="991" y="215" width="210" height="20" as="geometry" />
        </mxCell>
        <mxCell id="mYvSoDIpV9AA7xkCmXTC-26" value="" style="endArrow=classic;html=1;rounded=0;entryX=0;entryY=0.5;entryDx=0;entryDy=0;exitX=1;exitY=0.5;exitDx=0;exitDy=0;" parent="1" source="mYvSoDIpV9AA7xkCmXTC-18" target="mYvSoDIpV9AA7xkCmXTC-21" edge="1">
          <mxGeometry width="50" height="50" relative="1" as="geometry">
            <mxPoint x="517" y="155" as="sourcePoint" />
            <mxPoint x="293" y="104" as="targetPoint" />
          </mxGeometry>
        </mxCell>
        <mxCell id="mYvSoDIpV9AA7xkCmXTC-27" value="queue_30_step_review_view&lt;div&gt;queue_40_problem_review_view&lt;/div&gt;" style="rounded=1;whiteSpace=wrap;html=1;spacingRight=3;spacingLeft=3;" parent="1" vertex="1">
          <mxGeometry x="991" y="244" width="210" height="50" as="geometry" />
        </mxCell>
        <mxCell id="mYvSoDIpV9AA7xkCmXTC-28" value="" style="endArrow=classic;html=1;rounded=0;exitX=1;exitY=0.5;exitDx=0;exitDy=0;entryX=0;entryY=0.25;entryDx=0;entryDy=0;" parent="1" source="mYvSoDIpV9AA7xkCmXTC-18" target="mYvSoDIpV9AA7xkCmXTC-27" edge="1">
          <mxGeometry width="50" height="50" relative="1" as="geometry">
            <mxPoint x="486" y="118" as="sourcePoint" />
            <mxPoint x="526" y="73" as="targetPoint" />
          </mxGeometry>
        </mxCell>
        <mxCell id="mYvSoDIpV9AA7xkCmXTC-29" value="" style="endArrow=classic;html=1;rounded=0;exitX=1;exitY=0.25;exitDx=0;exitDy=0;entryX=-0.009;entryY=0.889;entryDx=0;entryDy=0;entryPerimeter=0;" parent="1" source="mYvSoDIpV9AA7xkCmXTC-11" target="mYvSoDIpV9AA7xkCmXTC-27" edge="1">
          <mxGeometry width="50" height="50" relative="1" as="geometry">
            <mxPoint x="471" y="387" as="sourcePoint" />
            <mxPoint x="885" y="292" as="targetPoint" />
          </mxGeometry>
        </mxCell>
        <mxCell id="mYvSoDIpV9AA7xkCmXTC-34" value="decision_overall_level_view" style="rounded=1;whiteSpace=wrap;html=1;spacingRight=3;spacingLeft=3;" parent="1" vertex="1">
          <mxGeometry x="993" y="515" width="197" height="30" as="geometry" />
        </mxCell>
        <mxCell id="mYvSoDIpV9AA7xkCmXTC-35" value="overall_level_log" style="rounded=1;whiteSpace=wrap;html=1;" parent="1" vertex="1">
          <mxGeometry x="49" y="611" width="150" height="30" as="geometry" />
        </mxCell>
        <mxCell id="mYvSoDIpV9AA7xkCmXTC-37" value="" style="endArrow=classic;html=1;rounded=0;exitX=1;exitY=0.25;exitDx=0;exitDy=0;entryX=0;entryY=0.25;entryDx=0;entryDy=0;" parent="1" source="mYvSoDIpV9AA7xkCmXTC-13" target="mYvSoDIpV9AA7xkCmXTC-34" edge="1">
          <mxGeometry width="50" height="50" relative="1" as="geometry">
            <mxPoint x="824" y="348" as="sourcePoint" />
            <mxPoint x="906" y="324" as="targetPoint" />
          </mxGeometry>
        </mxCell>
        <mxCell id="nkwBMkbIPw3e_FjHOo76-1" value="prev_curr_next_overall_level_view" style="rounded=1;whiteSpace=wrap;html=1;spacingRight=3;spacingLeft=3;" parent="1" vertex="1">
          <mxGeometry x="289" y="611" width="260" height="30" as="geometry" />
        </mxCell>
        <mxCell id="nkwBMkbIPw3e_FjHOo76-2" value="" style="endArrow=classic;html=1;rounded=0;exitX=1;exitY=0.5;exitDx=0;exitDy=0;entryX=0;entryY=0.5;entryDx=0;entryDy=0;" parent="1" source="mYvSoDIpV9AA7xkCmXTC-35" target="nkwBMkbIPw3e_FjHOo76-1" edge="1">
          <mxGeometry width="50" height="50" relative="1" as="geometry">
            <mxPoint x="223" y="548" as="sourcePoint" />
            <mxPoint x="915" y="556" as="targetPoint" />
          </mxGeometry>
        </mxCell>
        <mxCell id="8y1HY_7kOFdwQHltFke0-1" style="edgeStyle=orthogonalEdgeStyle;rounded=0;orthogonalLoop=1;jettySize=auto;html=1;exitX=1;exitY=0.5;exitDx=0;exitDy=0;entryX=0;entryY=0.5;entryDx=0;entryDy=0;" parent="1" source="nkwBMkbIPw3e_FjHOo76-6" target="mYvSoDIpV9AA7xkCmXTC-25" edge="1">
          <mxGeometry relative="1" as="geometry">
            <Array as="points">
              <mxPoint x="890" y="719" />
              <mxPoint x="890" y="225" />
            </Array>
          </mxGeometry>
        </mxCell>
        <mxCell id="nkwBMkbIPw3e_FjHOo76-6" value="prev_curr_next_param_level_view" style="rounded=1;whiteSpace=wrap;html=1;spacingRight=3;spacingLeft=3;" parent="1" vertex="1">
          <mxGeometry x="289" y="704" width="260" height="30" as="geometry" />
        </mxCell>
        <mxCell id="QaGjVA8-2h8eWTiUy8LJ-33" style="edgeStyle=orthogonalEdgeStyle;rounded=0;orthogonalLoop=1;jettySize=auto;html=1;exitX=0;exitY=0.5;exitDx=0;exitDy=0;entryX=0.5;entryY=0;entryDx=0;entryDy=0;" parent="1" source="nkwBMkbIPw3e_FjHOo76-12" target="QaGjVA8-2h8eWTiUy8LJ-4" edge="1">
          <mxGeometry relative="1" as="geometry">
            <Array as="points">
              <mxPoint x="10" y="526" />
              <mxPoint x="10" y="40" />
              <mxPoint x="720" y="40" />
            </Array>
          </mxGeometry>
        </mxCell>
        <mxCell id="nkwBMkbIPw3e_FjHOo76-12" value="param_level_log" style="rounded=1;whiteSpace=wrap;html=1;" parent="1" vertex="1">
          <mxGeometry x="50" y="511" width="150" height="30" as="geometry" />
        </mxCell>
        <mxCell id="nkwBMkbIPw3e_FjHOo76-13" value="" style="endArrow=classic;html=1;rounded=0;entryX=0;entryY=0.5;entryDx=0;entryDy=0;exitX=1;exitY=0.5;exitDx=0;exitDy=0;" parent="1" source="nkwBMkbIPw3e_FjHOo76-12" target="nkwBMkbIPw3e_FjHOo76-6" edge="1">
          <mxGeometry width="50" height="50" relative="1" as="geometry">
            <mxPoint x="223" y="548" as="sourcePoint" />
            <mxPoint x="608" y="556" as="targetPoint" />
          </mxGeometry>
        </mxCell>
        <mxCell id="2Y6EEMF6p_rSR_EKe2OT-1" value="decision_param_level_view" style="rounded=1;whiteSpace=wrap;html=1;spacingRight=3;spacingLeft=3;" parent="1" vertex="1">
          <mxGeometry x="993" y="555" width="197" height="30" as="geometry" />
        </mxCell>
        <mxCell id="2Y6EEMF6p_rSR_EKe2OT-2" value="" style="endArrow=classic;html=1;rounded=0;exitX=1;exitY=0.5;exitDx=0;exitDy=0;entryX=0;entryY=1;entryDx=0;entryDy=0;" parent="1" source="nkwBMkbIPw3e_FjHOo76-6" target="2Y6EEMF6p_rSR_EKe2OT-1" edge="1">
          <mxGeometry width="50" height="50" relative="1" as="geometry">
            <mxPoint x="830" y="373" as="sourcePoint" />
            <mxPoint x="900" y="316" as="targetPoint" />
          </mxGeometry>
        </mxCell>
        <mxCell id="2Y6EEMF6p_rSR_EKe2OT-3" value="" style="endArrow=classic;html=1;rounded=0;entryX=0;entryY=0.75;entryDx=0;entryDy=0;exitX=1;exitY=0.75;exitDx=0;exitDy=0;" parent="1" source="nkwBMkbIPw3e_FjHOo76-1" target="2Y6EEMF6p_rSR_EKe2OT-1" edge="1">
          <mxGeometry width="50" height="50" relative="1" as="geometry">
            <mxPoint x="830" y="580" as="sourcePoint" />
            <mxPoint x="913" y="680" as="targetPoint" />
          </mxGeometry>
        </mxCell>
        <mxCell id="QaGjVA8-2h8eWTiUy8LJ-11" style="edgeStyle=orthogonalEdgeStyle;rounded=0;orthogonalLoop=1;jettySize=auto;html=1;exitX=1;exitY=0.5;exitDx=0;exitDy=0;entryX=0;entryY=0.5;entryDx=0;entryDy=0;" parent="1" source="QaGjVA8-2h8eWTiUy8LJ-1" target="QaGjVA8-2h8eWTiUy8LJ-4" edge="1">
          <mxGeometry relative="1" as="geometry" />
        </mxCell>
        <mxCell id="QaGjVA8-2h8eWTiUy8LJ-1" value="sqlite_master" style="rounded=1;whiteSpace=wrap;html=1;spacingLeft=3;spacingRight=3;" parent="1" vertex="1">
          <mxGeometry x="50" y="158" width="150" height="27" as="geometry" />
        </mxCell>
        <mxCell id="QaGjVA8-2h8eWTiUy8LJ-4" value="queue_proportion_view" style="rounded=1;whiteSpace=wrap;html=1;spacingRight=3;spacingLeft=3;strokeColor=default;align=center;verticalAlign=middle;fontFamily=Helvetica;fontSize=12;fontColor=default;fillColor=default;" parent="1" vertex="1">
          <mxGeometry x="599" y="95" width="250" height="30" as="geometry" />
        </mxCell>
        <mxCell id="QaGjVA8-2h8eWTiUy8LJ-14" value="&lt;font style=&quot;font-size: 18px;&quot;&gt;queue_all_view&lt;/font&gt;&lt;div&gt;&lt;font&gt;Randomized problems from all non-intervention queues&lt;/font&gt;&lt;/div&gt;" style="rounded=1;whiteSpace=wrap;html=1;spacingRight=3;spacingLeft=3;" parent="1" vertex="1">
          <mxGeometry x="1243" y="115" width="210" height="179" as="geometry" />
        </mxCell>
        <mxCell id="QaGjVA8-2h8eWTiUy8LJ-20" value="" style="triangle;whiteSpace=wrap;html=1;" parent="1" vertex="1">
          <mxGeometry x="1216" y="118" width="20" height="175" as="geometry" />
        </mxCell>
        <mxCell id="QaGjVA8-2h8eWTiUy8LJ-24" value="" style="strokeWidth=2;html=1;shape=mxgraph.flowchart.annotation_2;align=left;labelPosition=right;pointerEvents=1;" parent="1" vertex="1">
          <mxGeometry x="968" y="115" width="20" height="122" as="geometry" />
        </mxCell>
        <mxCell id="QaGjVA8-2h8eWTiUy8LJ-28" value="" style="endArrow=none;html=1;rounded=0;exitX=1;exitY=0.5;exitDx=0;exitDy=0;entryX=0;entryY=0.5;entryDx=0;entryDy=0;entryPerimeter=0;" parent="1" source="mYvSoDIpV9AA7xkCmXTC-21" target="QaGjVA8-2h8eWTiUy8LJ-24" edge="1">
          <mxGeometry width="50" height="50" relative="1" as="geometry">
            <mxPoint x="955" y="230" as="sourcePoint" />
            <mxPoint x="1005" y="180" as="targetPoint" />
          </mxGeometry>
        </mxCell>
        <mxCell id="QaGjVA8-2h8eWTiUy8LJ-29" value="" style="strokeWidth=2;html=1;shape=mxgraph.flowchart.annotation_2;align=left;labelPosition=right;pointerEvents=1;" parent="1" vertex="1">
          <mxGeometry x="949" y="113" width="20" height="180" as="geometry" />
        </mxCell>
        <mxCell id="QaGjVA8-2h8eWTiUy8LJ-32" value="" style="endArrow=none;html=1;rounded=0;exitX=1;exitY=0.5;exitDx=0;exitDy=0;entryX=0;entryY=0.5;entryDx=0;entryDy=0;entryPerimeter=0;" parent="1" source="QaGjVA8-2h8eWTiUy8LJ-4" target="QaGjVA8-2h8eWTiUy8LJ-29" edge="1">
          <mxGeometry width="50" height="50" relative="1" as="geometry">
            <mxPoint x="905" y="230" as="sourcePoint" />
            <mxPoint x="955" y="180" as="targetPoint" />
          </mxGeometry>
        </mxCell>
        <mxCell id="lRatflip634tnUCa7-IA-1" value="queue_01_intervention_view" style="rounded=1;whiteSpace=wrap;html=1;spacingRight=3;spacingLeft=3;strokeColor=default;align=center;verticalAlign=middle;fontFamily=Helvetica;fontSize=12;fontColor=default;fillColor=default;" parent="1" vertex="1">
          <mxGeometry x="991" y="313" width="210" height="20" as="geometry" />
        </mxCell>
        <mxCell id="lRatflip634tnUCa7-IA-2" value="" style="endArrow=classic;html=1;rounded=0;entryX=0;entryY=0.5;entryDx=0;entryDy=0;exitX=1;exitY=0.5;exitDx=0;exitDy=0;" parent="1" source="mYvSoDIpV9AA7xkCmXTC-4" target="lRatflip634tnUCa7-IA-1" edge="1">
          <mxGeometry width="50" height="50" relative="1" as="geometry">
            <mxPoint x="670" y="430" as="sourcePoint" />
            <mxPoint x="720" y="380" as="targetPoint" />
          </mxGeometry>
        </mxCell>
        <mxCell id="lRatflip634tnUCa7-IA-3" value="" style="endArrow=classic;html=1;rounded=0;exitX=1;exitY=0.75;exitDx=0;exitDy=0;entryX=0;entryY=0.25;entryDx=0;entryDy=0;" parent="1" source="mYvSoDIpV9AA7xkCmXTC-18" target="lRatflip634tnUCa7-IA-1" edge="1">
          <mxGeometry width="50" height="50" relative="1" as="geometry">
            <mxPoint x="209" y="279" as="sourcePoint" />
            <mxPoint x="616" y="313" as="targetPoint" />
          </mxGeometry>
        </mxCell>
        <mxCell id="NG-mDzEeoKTfWt6I-G7j-1" value="" style="endArrow=classic;html=1;rounded=0;entryX=0;entryY=0.75;entryDx=0;entryDy=0;exitX=1;exitY=0.5;exitDx=0;exitDy=0;" edge="1" parent="1" source="nkwBMkbIPw3e_FjHOo76-1" target="mYvSoDIpV9AA7xkCmXTC-34">
          <mxGeometry width="50" height="50" relative="1" as="geometry">
            <mxPoint x="559" y="644" as="sourcePoint" />
            <mxPoint x="1003" y="588" as="targetPoint" />
          </mxGeometry>
        </mxCell>
        <mxCell id="NG-mDzEeoKTfWt6I-G7j-2" value="" style="endArrow=classic;html=1;rounded=0;exitX=1;exitY=0.75;exitDx=0;exitDy=0;entryX=0;entryY=0.25;entryDx=0;entryDy=0;" edge="1" parent="1" source="mYvSoDIpV9AA7xkCmXTC-13" target="2Y6EEMF6p_rSR_EKe2OT-1">
          <mxGeometry width="50" height="50" relative="1" as="geometry">
            <mxPoint x="859" y="470" as="sourcePoint" />
            <mxPoint x="1003" y="533" as="targetPoint" />
          </mxGeometry>
        </mxCell>
      </root>
    </mxGraphModel>
  </diagram>
</mxfile>
